<svg width="355" height="39" viewBox="0 0 355 39" fill="none" xmlns="http://www.w3.org/2000/svg">
<path d="M16.884 5.184H18.828C19.092 5.232 19.344 5.268 19.584 5.292C19.824 5.292 20.076 5.316 20.34 5.364C20.364 5.364 20.376 5.376 20.376 5.4C20.4 5.4 20.436 5.4 20.484 5.4C20.772 5.4 21.06 5.448 21.348 5.544C21.636 5.616 21.924 5.676 22.212 5.724L22.608 5.832C22.992 5.952 23.376 6.084 23.76 6.228C24.144 6.348 24.504 6.468 24.84 6.588C25.56 6.9 26.256 7.296 26.928 7.776C27.168 7.944 27.384 8.124 27.576 8.316C27.792 8.508 27.996 8.724 28.188 8.964C28.74 9.612 29.124 10.344 29.34 11.16L29.412 11.628C29.388 11.748 29.4 11.868 29.448 11.988C29.496 12.108 29.52 12.228 29.52 12.348C29.52 12.468 29.508 12.588 29.484 12.708C29.46 12.804 29.436 12.9 29.412 12.996C29.436 13.092 29.436 13.212 29.412 13.356C29.364 13.644 29.28 13.932 29.16 14.22C29.04 14.484 28.908 14.748 28.764 15.012C28.524 15.444 28.248 15.852 27.936 16.236C27.648 16.62 27.348 16.992 27.036 17.352C26.892 17.496 26.736 17.652 26.568 17.82C26.424 17.964 26.268 18.096 26.1 18.216C25.812 18.456 25.536 18.684 25.272 18.9C25.008 19.092 24.744 19.296 24.48 19.512L24.264 19.656C23.928 19.896 23.58 20.136 23.22 20.376C22.86 20.616 22.476 20.832 22.068 21.024C21.804 21.192 21.552 21.348 21.312 21.492C21.072 21.636 20.82 21.78 20.556 21.924L19.692 22.356C19.284 22.548 18.876 22.74 18.468 22.932C18.084 23.1 17.676 23.268 17.244 23.436C17.004 23.556 16.752 23.664 16.488 23.76C16.248 23.856 16.008 23.952 15.768 24.048C15.552 24.144 15.324 24.24 15.084 24.336C14.868 24.432 14.664 24.516 14.472 24.588C14.304 24.636 14.136 24.684 13.968 24.732C13.824 24.756 13.68 24.792 13.536 24.84C12.984 25.056 12.408 25.236 11.808 25.38C11.424 25.476 11.052 25.584 10.692 25.704C10.356 25.8 9.996 25.884 9.612 25.956C9.396 26.004 9.228 26.04 9.108 26.064C9.012 26.088 8.94 26.124 8.892 26.172C8.844 26.22 8.808 26.304 8.784 26.424C8.784 26.52 8.748 26.664 8.676 26.856C8.628 26.976 8.604 27.096 8.604 27.216C8.628 27.312 8.616 27.408 8.568 27.504C8.496 27.768 8.52 28.02 8.64 28.26C8.76 28.5 8.868 28.752 8.964 29.016C9.012 29.184 8.952 29.244 8.784 29.196C8.76 29.196 8.724 29.184 8.676 29.16C8.652 29.16 8.616 29.16 8.568 29.16C8.448 29.136 8.328 29.064 8.208 28.944C8.112 28.824 7.956 28.716 7.74 28.62C7.548 28.524 7.416 28.416 7.344 28.296C7.32 28.248 7.296 28.2 7.272 28.152C7.248 28.104 7.236 28.056 7.236 28.008C7.284 27.792 7.308 27.576 7.308 27.36C7.332 27.144 7.368 26.928 7.416 26.712C7.416 26.688 7.404 26.664 7.38 26.64C7.38 26.616 7.38 26.58 7.38 26.532C7.38 26.46 7.344 26.424 7.272 26.424C7.224 26.424 7.176 26.424 7.128 26.424C7.104 26.4 7.068 26.4 7.02 26.424C6.876 26.448 6.744 26.472 6.624 26.496C6.504 26.496 6.384 26.496 6.264 26.496C6.192 26.496 6.132 26.508 6.084 26.532C5.676 26.604 5.244 26.64 4.788 26.64C4.332 26.616 3.864 26.604 3.384 26.604C2.664 26.604 2.016 26.484 1.44 26.244C1.32 26.196 1.2 26.148 1.08 26.1C0.96 26.028 0.84 25.956 0.72 25.884C0.672 25.86 0.636 25.836 0.612 25.812C0.612 25.788 0.588 25.752 0.54 25.704C0.252 25.416 0.072 25.092 0 24.732C0 24.54 0.048 24.384 0.144 24.264C0.264 24.288 0.348 24.276 0.396 24.228C0.444 24.156 0.492 24.096 0.54 24.048C0.564 24.024 0.6 24.024 0.648 24.048C0.696 24.144 0.72 24.288 0.72 24.48C0.744 24.648 0.768 24.792 0.792 24.912C0.792 25.032 0.9 25.152 1.116 25.272C1.284 25.392 1.5 25.464 1.764 25.488C2.196 25.584 2.64 25.632 3.096 25.632C3.552 25.632 4.008 25.62 4.464 25.596C4.488 25.596 4.512 25.608 4.536 25.632C4.56 25.632 4.596 25.62 4.644 25.596C4.86 25.548 5.076 25.524 5.292 25.524C5.532 25.524 5.748 25.512 5.94 25.488C6.204 25.44 6.468 25.392 6.732 25.344C7.02 25.296 7.296 25.248 7.56 25.2C7.704 25.152 7.812 25.068 7.884 24.948C8.004 24.708 8.1 24.444 8.172 24.156C8.244 23.868 8.304 23.592 8.352 23.328L8.496 22.86C8.544 22.788 8.58 22.716 8.604 22.644C8.652 22.548 8.676 22.44 8.676 22.32C8.676 22.296 8.7 22.236 8.748 22.14C8.796 22.044 8.832 21.948 8.856 21.852C8.904 21.732 8.952 21.612 9 21.492C9.072 21.276 9.108 21.048 9.108 20.808C9.204 20.688 9.264 20.58 9.288 20.484C9.336 20.388 9.384 20.28 9.432 20.16C9.48 20.04 9.516 19.932 9.54 19.836C9.564 19.716 9.6 19.596 9.648 19.476C9.696 19.356 9.732 19.224 9.756 19.08C9.804 18.936 9.852 18.804 9.9 18.684C9.972 18.612 10.008 18.54 10.008 18.468C9.984 18.348 9.996 18.24 10.044 18.144C10.092 18.048 10.14 17.94 10.188 17.82C10.284 17.628 10.332 17.46 10.332 17.316C10.332 17.196 10.344 17.1 10.368 17.028C10.392 16.932 10.416 16.836 10.44 16.74C10.44 16.596 10.5 16.464 10.62 16.344C10.668 16.296 10.692 16.236 10.692 16.164C10.716 16.092 10.74 16.02 10.764 15.948C10.812 15.804 10.86 15.672 10.908 15.552C10.956 15.432 10.98 15.3 10.98 15.156C10.908 15.084 10.908 15.048 10.98 15.048C11.076 14.928 11.124 14.796 11.124 14.652C11.148 14.508 11.196 14.376 11.268 14.256C11.316 14.16 11.328 14.076 11.304 14.004C11.28 13.932 11.292 13.848 11.34 13.752C11.412 13.68 11.448 13.62 11.448 13.572C11.472 13.5 11.484 13.428 11.484 13.356C11.484 13.188 11.496 13.068 11.52 12.996C11.616 12.876 11.676 12.756 11.7 12.636C11.748 12.492 11.784 12.36 11.808 12.24C11.808 12.048 11.832 11.868 11.88 11.7C11.928 11.508 12 11.316 12.096 11.124C12.096 11.1 12.108 11.076 12.132 11.052C12.156 11.028 12.156 11.004 12.132 10.98C12.06 10.788 12.048 10.632 12.096 10.512C12.168 10.392 12.204 10.272 12.204 10.152C12.18 9.984 12.192 9.84 12.24 9.72C12.288 9.576 12.324 9.432 12.348 9.288C12.396 9.168 12.42 9.048 12.42 8.928C12.444 8.784 12.504 8.664 12.6 8.568C12.624 8.52 12.636 8.46 12.636 8.388C12.636 8.244 12.648 8.112 12.672 7.992C12.696 7.872 12.732 7.752 12.78 7.632C12.828 7.512 12.864 7.38 12.888 7.236C12.912 7.092 12.936 6.96 12.96 6.84C12.96 6.72 12.9 6.66 12.78 6.66C12.732 6.708 12.672 6.72 12.6 6.696C12.552 6.672 12.504 6.684 12.456 6.732C12.192 6.78 11.94 6.828 11.7 6.876C11.46 6.924 11.208 6.972 10.944 7.02C10.32 7.14 9.684 7.308 9.036 7.524C8.412 7.716 7.788 7.92 7.164 8.136C6.756 8.28 6.36 8.448 5.976 8.64C5.592 8.832 5.208 9.024 4.824 9.216L4.032 9.756C3.888 9.948 3.828 10.128 3.852 10.296C3.9 10.344 3.888 10.392 3.816 10.44C3.768 10.488 3.708 10.512 3.636 10.512C3.516 10.512 3.432 10.5 3.384 10.476L3.204 10.368C3.084 10.248 2.952 10.128 2.808 10.008C2.688 9.888 2.604 9.744 2.556 9.576C2.508 9.408 2.508 9.3 2.556 9.252C2.676 9.108 2.796 8.952 2.916 8.784C3.036 8.616 3.168 8.484 3.312 8.388C3.72 8.1 4.128 7.884 4.536 7.74C4.944 7.572 5.352 7.392 5.76 7.2C6.264 6.984 6.78 6.804 7.308 6.66C7.836 6.492 8.364 6.348 8.892 6.228C8.94 6.204 8.988 6.18 9.036 6.156C9.108 6.132 9.168 6.12 9.216 6.12C9.36 6.12 9.492 6.108 9.612 6.084C9.756 6.036 9.9 5.988 10.044 5.94L10.404 5.832L11.016 5.724C11.304 5.652 11.58 5.616 11.844 5.616C11.94 5.616 12.06 5.592 12.204 5.544C12.324 5.496 12.42 5.472 12.492 5.472C12.588 5.448 12.684 5.436 12.78 5.436C13.02 5.436 13.152 5.412 13.176 5.364C13.224 5.316 13.272 5.196 13.32 5.004C13.368 4.764 13.404 4.536 13.428 4.32C13.452 4.08 13.488 3.84 13.536 3.6C13.584 3.384 13.608 3.18 13.608 2.988C13.632 2.772 13.644 2.568 13.644 2.376C13.692 2.184 13.716 2.016 13.716 1.872C13.74 1.728 13.74 1.56 13.716 1.368C13.716 1.248 13.704 1.14 13.68 1.044C13.656 0.924 13.632 0.816 13.608 0.719999C13.608 0.647999 13.596 0.587999 13.572 0.539999C13.548 0.467999 13.536 0.407999 13.536 0.36C13.536 0.144 13.632 0.0359995 13.824 0.0359995C13.848 0.0359995 13.86 0.0359995 13.86 0.0359995C13.884 0.0119998 13.92 0 13.968 0C14.184 0.0479994 14.316 0.0959995 14.364 0.144L14.76 0.684C14.808 0.78 14.844 0.876 14.868 0.972C14.916 1.068 14.94 1.164 14.94 1.26L15.012 2.844C15.012 2.916 15 2.988 14.976 3.06C14.976 3.108 14.988 3.156 15.012 3.204L14.724 4.932V5.076C14.772 5.124 14.796 5.148 14.796 5.148C14.82 5.172 14.88 5.184 14.976 5.184C15.24 5.184 15.504 5.184 15.768 5.184C16.032 5.184 16.308 5.172 16.596 5.148H16.92L16.884 5.184ZM9.468 24.732C9.588 24.756 9.684 24.78 9.756 24.804C9.828 24.804 9.924 24.78 10.044 24.732C10.14 24.684 10.236 24.66 10.332 24.66C10.428 24.636 10.536 24.6 10.656 24.552C10.872 24.552 11.112 24.48 11.376 24.336C11.472 24.24 11.58 24.192 11.7 24.192C11.844 24.192 11.976 24.18 12.096 24.156C12.216 24.132 12.336 24.096 12.456 24.048C12.576 24 12.672 23.964 12.744 23.94C12.84 23.916 12.936 23.892 13.032 23.868C13.128 23.868 13.236 23.832 13.356 23.76C13.5 23.688 13.644 23.616 13.788 23.544C13.956 23.472 14.136 23.424 14.328 23.4C14.52 23.352 14.676 23.292 14.796 23.22C14.94 23.148 15.108 23.088 15.3 23.04C15.42 22.92 15.576 22.86 15.768 22.86C15.816 22.86 15.864 22.848 15.912 22.824C15.96 22.8 16.008 22.776 16.056 22.752C16.152 22.704 16.236 22.668 16.308 22.644C16.38 22.596 16.476 22.572 16.596 22.572L17.172 22.284C17.508 22.164 17.784 22.008 18 21.816C18.168 21.72 18.384 21.624 18.648 21.528C18.792 21.48 18.912 21.42 19.008 21.348C19.104 21.252 19.212 21.18 19.332 21.132C19.5 21.084 19.656 21.012 19.8 20.916C19.944 20.82 20.112 20.784 20.304 20.808C20.424 20.688 20.556 20.58 20.7 20.484C20.868 20.364 21.024 20.256 21.168 20.16L21.348 20.052C21.588 19.932 21.804 19.788 21.996 19.62C22.212 19.452 22.44 19.308 22.68 19.188C22.728 19.188 22.776 19.164 22.824 19.116L23.076 18.9C23.34 18.708 23.58 18.54 23.796 18.396C24.036 18.228 24.252 18.06 24.444 17.892C24.564 17.82 24.672 17.748 24.768 17.676C24.864 17.604 24.96 17.508 25.056 17.388C25.272 17.22 25.464 17.052 25.632 16.884C25.8 16.716 25.98 16.536 26.172 16.344C26.388 16.08 26.604 15.828 26.82 15.588C27.06 15.324 27.264 15.06 27.432 14.796C27.48 14.7 27.528 14.628 27.576 14.58C27.648 14.508 27.72 14.424 27.792 14.328C27.84 14.208 27.888 14.112 27.936 14.04C27.984 13.968 28.032 13.896 28.08 13.824L28.296 13.212C28.368 12.924 28.416 12.588 28.44 12.204C28.464 11.82 28.452 11.484 28.404 11.196C28.38 10.932 28.32 10.692 28.224 10.476C28.152 10.236 28.02 10.008 27.828 9.792C27.588 9.528 27.348 9.288 27.108 9.072C26.868 8.832 26.592 8.616 26.28 8.424C25.968 8.232 25.644 8.052 25.308 7.884C24.972 7.716 24.636 7.572 24.3 7.452C24.132 7.38 23.964 7.32 23.796 7.272C23.628 7.2 23.448 7.14 23.256 7.092L21.816 6.732C21.6 6.684 21.408 6.648 21.24 6.624C21.072 6.6 20.892 6.576 20.7 6.552C20.436 6.504 20.184 6.468 19.944 6.444C19.704 6.42 19.452 6.408 19.188 6.408C19.092 6.408 19.032 6.396 19.008 6.372C18.864 6.324 18.72 6.3 18.576 6.3C18.432 6.3 18.276 6.3 18.108 6.3H16.56C16.368 6.3 16.2 6.3 16.056 6.3C15.912 6.3 15.744 6.324 15.552 6.372C15.456 6.396 15.288 6.408 15.048 6.408C14.928 6.432 14.772 6.444 14.58 6.444C14.508 6.444 14.448 6.492 14.4 6.588C14.352 6.66 14.316 6.732 14.292 6.804C14.292 6.876 14.28 6.936 14.256 6.984C14.184 7.344 14.112 7.728 14.04 8.136C13.992 8.52 13.908 8.892 13.788 9.252C13.764 9.324 13.752 9.408 13.752 9.504C13.752 9.576 13.728 9.648 13.68 9.72L13.464 10.908C13.392 11.244 13.308 11.58 13.212 11.916C13.14 12.228 13.056 12.552 12.96 12.888C12.888 13.248 12.792 13.608 12.672 13.968C12.576 14.328 12.48 14.688 12.384 15.048C12.336 15.336 12.264 15.624 12.168 15.912C12.096 16.2 12.024 16.488 11.952 16.776C11.832 17.064 11.724 17.352 11.628 17.64C11.556 17.928 11.472 18.204 11.376 18.468L10.62 20.88C10.596 20.928 10.584 20.976 10.584 21.024C10.416 21.504 10.26 21.972 10.116 22.428C9.972 22.884 9.804 23.352 9.612 23.832C9.588 23.928 9.552 24.072 9.504 24.264C9.48 24.432 9.468 24.588 9.468 24.732Z" fill="#151515"/>
<path d="M31.5413 22.428C31.2773 22.38 31.0013 22.344 30.7133 22.32C30.4493 22.272 30.2213 22.164 30.0293 21.996C29.7653 21.732 29.5253 21.444 29.3093 21.132C29.0693 20.82 28.9733 20.472 29.0213 20.088C29.0213 20.04 29.0333 19.944 29.0573 19.8C29.0573 19.632 29.0813 19.524 29.1293 19.476L29.2013 19.26C29.3213 18.972 29.4053 18.78 29.4533 18.684C29.5013 18.588 29.6093 18.408 29.7773 18.144C30.1853 17.52 30.7133 16.944 31.3613 16.416C31.5533 16.248 31.7693 16.092 32.0093 15.948C32.2493 15.78 32.5133 15.624 32.8013 15.48C32.8733 15.48 32.9693 15.444 33.0893 15.372C33.2813 15.3 33.4733 15.312 33.6653 15.408C33.8813 15.504 34.0493 15.612 34.1693 15.732L34.3133 16.092C34.3853 16.668 34.2413 17.136 33.8813 17.496C33.6173 17.808 33.3293 18.108 33.0173 18.396C32.7293 18.684 32.4173 18.96 32.0813 19.224C32.0333 19.272 31.9613 19.32 31.8653 19.368C31.7933 19.416 31.7333 19.464 31.6853 19.512C31.6133 19.584 31.5173 19.632 31.3973 19.656C31.3013 19.656 31.1933 19.668 31.0733 19.692C30.8813 19.812 30.7133 19.776 30.5693 19.584L30.4253 19.476H30.3533C30.3293 19.476 30.3173 19.488 30.3173 19.512C30.1973 19.68 30.1253 19.872 30.1013 20.088C30.1013 20.304 30.1013 20.496 30.1013 20.664C30.1253 20.784 30.2093 20.916 30.3533 21.06C30.4493 21.18 30.5573 21.264 30.6773 21.312C30.8213 21.36 30.9533 21.384 31.0733 21.384C31.1693 21.408 31.3013 21.42 31.4693 21.42C31.6613 21.396 31.8653 21.384 32.0813 21.384C32.3213 21.384 32.5613 21.336 32.8013 21.24C33.6893 21.024 34.4933 20.76 35.2133 20.448C35.9333 20.136 36.6653 19.812 37.4093 19.476C37.7933 19.284 38.1413 19.104 38.4533 18.936C38.7893 18.744 39.1253 18.564 39.4613 18.396C39.6773 18.276 39.8093 18.204 39.8573 18.18C39.9053 18.132 40.0493 18.024 40.2893 17.856C40.4093 17.736 40.4693 17.688 40.4693 17.712C40.4933 17.712 40.6013 17.676 40.7933 17.604C40.8413 17.556 40.8533 17.556 40.8293 17.604C40.8293 17.628 40.8413 17.676 40.8653 17.748C40.8893 17.844 40.9133 17.964 40.9373 18.108C40.9853 18.228 40.9613 18.324 40.8653 18.396C40.6973 18.564 40.6253 18.66 40.6493 18.684C40.6733 18.684 40.6013 18.756 40.4333 18.9C40.0733 19.164 39.7133 19.392 39.3533 19.584C38.9933 19.776 38.6213 19.992 38.2373 20.232C37.9733 20.352 37.7213 20.472 37.4813 20.592C37.2653 20.712 37.0493 20.82 36.8333 20.916C36.3533 21.108 35.8613 21.312 35.3573 21.528C34.8773 21.72 34.3733 21.876 33.8453 21.996L32.8013 22.284C32.5373 22.356 32.3333 22.404 32.1893 22.428C32.0453 22.428 31.8293 22.428 31.5413 22.428ZM31.0733 18.576C31.4813 18.336 31.8653 18.048 32.2253 17.712C32.5853 17.376 32.9333 17.004 33.2693 16.596C33.2453 16.596 33.2213 16.608 33.1973 16.632C33.1733 16.632 33.1493 16.632 33.1253 16.632C32.6693 16.824 32.2733 17.052 31.9373 17.316C31.6253 17.58 31.3733 17.916 31.1813 18.324C31.1573 18.324 31.1213 18.408 31.0733 18.576Z" fill="#151515"/>
<path d="M45.1617 16.236C45.1617 16.284 45.1497 16.32 45.1257 16.344C45.1257 16.368 45.1257 16.404 45.1257 16.452C45.1257 16.5 45.1017 16.536 45.0537 16.56C45.0057 16.584 44.9697 16.584 44.9457 16.56C44.9217 16.56 44.8977 16.548 44.8737 16.524C44.7537 16.428 44.6217 16.38 44.4777 16.38C44.3337 16.356 44.1777 16.356 44.0097 16.38C43.6497 16.476 43.2777 16.584 42.8937 16.704C42.5337 16.824 42.1857 16.98 41.8497 17.172C41.6337 17.268 41.3937 17.424 41.1297 17.64C40.9857 17.76 41.0097 17.856 41.2017 17.928C41.2977 17.976 41.3697 18 41.4177 18C41.5617 18.048 41.7057 18.096 41.8497 18.144C41.9937 18.168 42.1497 18.204 42.3177 18.252C42.5337 18.3 42.7377 18.36 42.9297 18.432C43.1457 18.504 43.3617 18.576 43.5777 18.648C43.7457 18.72 43.8777 18.768 43.9737 18.792C44.0697 18.792 44.2017 18.852 44.3697 18.972C44.5377 19.068 44.6817 19.104 44.8017 19.08C45.1857 18.984 45.5937 18.9 46.0257 18.828C46.1697 18.78 46.3017 18.744 46.4217 18.72C46.5657 18.696 46.7217 18.672 46.8897 18.648C46.9617 18.648 47.1057 18.624 47.3217 18.576C47.5377 18.528 47.7657 18.48 48.0057 18.432C48.2457 18.36 48.4737 18.3 48.6897 18.252C48.9057 18.204 49.0497 18.18 49.1217 18.18C49.1937 18.18 49.2657 18.168 49.3377 18.144C49.4097 18.12 49.4817 18.108 49.5537 18.108C49.6737 18.036 49.7457 18.024 49.7697 18.072C49.9137 18.048 50.1057 18.024 50.3457 18C50.5857 17.952 50.7297 17.988 50.7777 18.108C50.9217 18.228 50.9697 18.336 50.9217 18.432C50.8737 18.504 50.7897 18.564 50.6697 18.612C50.5497 18.66 50.4057 18.696 50.2377 18.72C50.0937 18.744 49.9737 18.756 49.8777 18.756C49.7097 18.756 49.5417 18.78 49.3737 18.828C49.2297 18.876 49.0857 18.924 48.9417 18.972L46.8897 19.44C46.6737 19.488 46.3857 19.572 46.0257 19.692C45.6657 19.788 45.4497 19.872 45.3777 19.944C45.3057 19.992 45.3057 20.076 45.3777 20.196C45.4737 20.292 45.5337 20.376 45.5577 20.448C45.6057 20.568 45.6177 20.664 45.5937 20.736C45.5937 20.784 45.5937 20.856 45.5937 20.952C45.5697 21.216 45.5217 21.432 45.4497 21.6C45.4017 21.744 45.2577 21.948 45.0177 22.212C44.8017 22.476 44.5617 22.704 44.2977 22.896C44.0577 23.088 43.8057 23.28 43.5417 23.472C43.2537 23.664 42.9537 23.844 42.6417 24.012C42.3537 24.156 42.0537 24.288 41.7417 24.408C41.6937 24.456 41.6457 24.48 41.5977 24.48C41.3337 24.528 41.0817 24.588 40.8417 24.66C40.6257 24.732 40.3977 24.768 40.1577 24.768C40.0857 24.768 40.0257 24.78 39.9777 24.804C39.9297 24.828 39.8817 24.84 39.8337 24.84C39.6417 24.864 39.4497 24.864 39.2577 24.84C39.0657 24.792 38.8857 24.708 38.7177 24.588C38.5977 24.516 38.5137 24.444 38.4657 24.372C38.3937 24.276 38.3337 24.168 38.2857 24.048L38.1777 23.508C38.1777 23.436 38.2017 23.376 38.2497 23.328C38.3697 22.968 38.5377 22.68 38.7537 22.464C39.0177 22.224 39.2817 22.008 39.5457 21.816C39.7857 21.6 40.0497 21.408 40.3377 21.24C40.4817 21.168 40.6137 21.084 40.7337 20.988C40.8537 20.892 40.9977 20.82 41.1657 20.772C41.2137 20.748 41.2497 20.736 41.2737 20.736C41.2977 20.736 41.3217 20.724 41.3457 20.7C41.6817 20.508 42.0177 20.328 42.3537 20.16C42.7137 19.992 43.0617 19.848 43.3977 19.728C43.4457 19.728 43.4697 19.704 43.4697 19.656C43.4457 19.632 43.4337 19.644 43.4337 19.692C43.4337 19.716 43.4217 19.716 43.3977 19.692C43.1817 19.62 42.9537 19.548 42.7137 19.476C42.4977 19.38 42.2817 19.308 42.0657 19.26L41.3817 19.08C41.2137 19.056 41.0457 18.996 40.8777 18.9C40.3977 18.732 40.1337 18.36 40.0857 17.784C40.0137 17.4 40.1217 17.076 40.4097 16.812C40.4817 16.74 40.5537 16.68 40.6257 16.632C40.6977 16.56 40.7697 16.5 40.8417 16.452C41.1057 16.26 41.3817 16.104 41.6697 15.984C41.9817 15.84 42.2817 15.708 42.5697 15.588C43.1217 15.396 43.6137 15.264 44.0457 15.192C44.0937 15.192 44.1417 15.192 44.1897 15.192C44.2617 15.168 44.3217 15.156 44.3697 15.156C44.6337 15.108 44.8257 15.204 44.9457 15.444C44.9457 15.468 44.9697 15.528 45.0177 15.624C45.1857 15.816 45.2337 16.02 45.1617 16.236ZM39.4737 23.904C39.5937 23.904 39.7137 23.892 39.8337 23.868C39.9537 23.844 40.0737 23.82 40.1937 23.796C40.6497 23.7 41.1537 23.532 41.7057 23.292C41.8257 23.22 41.9457 23.148 42.0657 23.076C42.1857 23.004 42.3057 22.944 42.4257 22.896L42.6777 22.716L43.5777 22.104C43.9377 21.84 44.2737 21.516 44.5857 21.132C44.6337 21.084 44.6577 21.024 44.6577 20.952C44.6577 20.856 44.6697 20.784 44.6937 20.736C44.7417 20.688 44.7417 20.676 44.6937 20.7C44.6697 20.724 44.6817 20.712 44.7297 20.664C44.7297 20.616 44.6937 20.532 44.6217 20.412C44.5497 20.292 44.4897 20.244 44.4417 20.268C44.1297 20.388 43.8417 20.52 43.5777 20.664C43.3137 20.808 43.0257 20.952 42.7137 21.096C42.5937 21.144 42.4737 21.216 42.3537 21.312C42.2577 21.384 42.1497 21.444 42.0297 21.492L41.8137 21.6L41.0577 22.032C41.0097 22.08 40.9497 22.116 40.8777 22.14C40.8057 22.164 40.7457 22.2 40.6977 22.248C40.5537 22.368 40.3977 22.488 40.2297 22.608C40.0857 22.704 39.9417 22.812 39.7977 22.932C39.5097 23.148 39.2697 23.424 39.0777 23.76L39.1137 23.832C39.3057 23.88 39.4257 23.904 39.4737 23.904Z" fill="#151515"/>
<path d="M52.3732 22.104C52.2532 22.104 52.1212 22.08 51.9772 22.032C51.8332 21.984 51.6653 21.936 51.4733 21.888C51.1133 21.696 50.8493 21.528 50.6813 21.384C50.5133 21.216 50.3692 20.928 50.2492 20.52C50.0572 20.088 50.0093 19.644 50.1053 19.188L50.4292 18.036C50.5492 17.82 50.6692 17.592 50.7892 17.352C50.9092 17.112 51.0053 16.884 51.0773 16.668C51.1013 16.668 51.1013 16.656 51.0773 16.632C51.0533 16.608 51.0533 16.584 51.0773 16.56C51.1013 16.512 51.1492 16.476 51.2212 16.452C51.2932 16.428 51.3532 16.428 51.4012 16.452C51.4972 16.5 51.5813 16.548 51.6533 16.596C51.7253 16.62 51.7973 16.656 51.8693 16.704C51.8933 16.728 51.9053 16.752 51.9053 16.776C51.9053 16.776 51.9292 16.788 51.9772 16.812C52.1212 16.956 52.1932 17.088 52.1932 17.208C52.2172 17.328 52.1693 17.484 52.0493 17.676L51.4372 19.08C51.3652 19.296 51.2932 19.512 51.2212 19.728C51.1732 19.944 51.1732 20.16 51.2212 20.376C51.2452 20.784 51.4493 21.024 51.8333 21.096C52.2413 21.144 52.6132 21.144 52.9492 21.096C53.2852 21.048 53.6573 20.964 54.0653 20.844C54.4733 20.7 54.8693 20.544 55.2533 20.376C55.6613 20.184 56.0333 19.992 56.3693 19.8C56.7293 19.584 57.0292 19.38 57.2692 19.188C57.4132 19.068 57.4973 18.996 57.5213 18.972C57.5453 18.948 57.5693 18.936 57.5933 18.936C57.6173 18.936 57.6533 18.924 57.7013 18.9C57.7493 18.852 57.8692 18.756 58.0612 18.612C58.1332 18.54 58.2412 18.456 58.3853 18.36C58.5293 18.24 58.6373 18.144 58.7093 18.072C58.8053 18.024 58.9133 17.952 59.0333 17.856C59.1773 17.736 59.3092 17.628 59.4292 17.532C59.5732 17.436 59.6932 17.376 59.7892 17.352C59.9092 17.328 60.0053 17.364 60.0773 17.46C60.1253 17.556 60.1133 17.676 60.0413 17.82C59.9693 17.94 59.9693 18.06 60.0413 18.18L59.9692 18.396C59.9212 18.516 59.8612 18.588 59.7892 18.612C59.7172 18.636 59.6213 18.66 59.5013 18.684C59.3333 18.828 59.1773 18.96 59.0333 19.08C58.8893 19.2 58.7452 19.344 58.6012 19.512C58.3612 19.704 58.1692 19.848 58.0252 19.944C57.8812 20.04 57.7492 20.136 57.6292 20.232C57.5332 20.304 57.4253 20.376 57.3053 20.448C57.1853 20.52 57.0412 20.616 56.8732 20.736C56.8732 20.76 56.8132 20.784 56.6932 20.808C56.5732 20.832 56.5012 20.856 56.4772 20.88C56.3092 21.072 56.1172 21.204 55.9012 21.276C55.6852 21.348 55.3973 21.468 55.0373 21.636C54.6773 21.732 54.2572 21.852 53.7772 21.996C53.3212 22.14 52.8532 22.176 52.3732 22.104ZM52.6973 13.932C52.6013 13.884 52.5413 13.86 52.5173 13.86C52.4693 13.836 52.4332 13.812 52.4092 13.788C52.3852 13.764 52.3493 13.728 52.3013 13.68C52.1813 13.488 52.1452 13.272 52.1932 13.032C52.2412 12.84 52.2892 12.648 52.3372 12.456C52.3852 12.264 52.4813 12.072 52.6253 11.88C52.6253 11.76 52.6493 11.724 52.6973 11.772C52.8413 11.7 52.9613 11.664 53.0573 11.664C53.2733 11.736 53.4773 11.868 53.6693 12.06C53.7893 12.132 53.8373 12.216 53.8133 12.312C53.8133 12.384 53.8012 12.48 53.7772 12.6C53.7772 12.648 53.7652 12.696 53.7412 12.744C53.7172 12.768 53.6933 12.804 53.6693 12.852C53.5013 13.044 53.3573 13.272 53.2373 13.536C53.3093 13.584 53.2973 13.62 53.2013 13.644C53.0813 13.836 52.9133 13.932 52.6973 13.932Z" fill="#151515"/>
<path d="M52.0886 35.964C52.0406 35.652 52.0526 35.352 52.1246 35.064C52.1726 34.8 52.2446 34.536 52.3406 34.272C52.4606 33.864 52.6046 33.468 52.7726 33.084C52.9406 32.724 53.1206 32.352 53.3126 31.968C53.5526 31.584 53.7926 31.212 54.0326 30.852C54.2726 30.516 54.5246 30.168 54.7886 29.808C54.9086 29.64 55.0286 29.484 55.1486 29.34C55.2686 29.196 55.4006 29.052 55.5446 28.908C55.5926 28.836 55.6526 28.776 55.7246 28.728C55.7966 28.68 55.8566 28.62 55.9046 28.548L56.1926 28.152C56.2406 28.128 56.2766 28.104 56.3006 28.08C56.3006 28.032 56.3246 27.996 56.3726 27.972C56.5646 27.828 56.7326 27.672 56.8766 27.504C57.0206 27.312 57.1766 27.132 57.3446 26.964C57.5126 26.82 57.6806 26.664 57.8486 26.496C57.9926 26.328 58.1366 26.16 58.2806 25.992L58.6046 25.74C58.7246 25.62 58.8566 25.512 59.0006 25.416C59.1446 25.296 59.2766 25.164 59.3966 25.02C59.4206 24.972 59.4806 24.924 59.5766 24.876C59.7686 24.732 59.9126 24.612 60.0086 24.516C60.1286 24.324 60.3086 24.168 60.5486 24.048C60.8126 23.904 61.0286 23.724 61.1966 23.508L61.3406 23.436L63.2486 22.032C63.4406 21.936 63.6206 21.828 63.7886 21.708C63.9566 21.588 64.1366 21.468 64.3286 21.348C64.4246 21.252 64.4726 21.156 64.4726 21.06C64.4726 20.94 64.4966 20.784 64.5446 20.592C64.5686 20.472 64.6046 20.304 64.6526 20.088C64.7246 19.872 64.7846 19.656 64.8326 19.44C64.9046 19.2 64.9646 18.984 65.0126 18.792C65.0606 18.576 65.0846 18.408 65.0846 18.288C65.1086 18.192 65.1086 18.072 65.0846 17.928C65.0846 17.904 65.0726 17.856 65.0486 17.784C65.0486 17.688 65.0486 17.652 65.0486 17.676C64.8086 17.796 64.5686 17.976 64.3286 18.216C64.2326 18.336 64.1366 18.432 64.0406 18.504C63.9446 18.576 63.8366 18.66 63.7166 18.756L63.1046 19.296C63.0326 19.344 62.9726 19.404 62.9246 19.476C62.8766 19.548 62.8166 19.62 62.7446 19.692L61.9886 20.412C61.7726 20.556 61.5686 20.712 61.3766 20.88C61.2086 21.024 61.0286 21.156 60.8366 21.276C60.6446 21.396 60.4526 21.516 60.2606 21.636C60.0686 21.732 59.8766 21.828 59.6846 21.924C59.5646 21.996 59.4326 22.032 59.2886 22.032C59.1446 22.032 59.0006 22.056 58.8566 22.104C58.7606 22.056 58.6646 22.032 58.5686 22.032C58.4726 22.008 58.3886 21.96 58.3166 21.888L57.9566 21.456C57.6926 21.12 57.6206 20.784 57.7406 20.448C57.8126 20.136 57.9326 19.812 58.1006 19.476L58.7486 18.54C58.8206 18.444 58.9046 18.348 59.0006 18.252C59.1206 18.156 59.2046 18.06 59.2526 17.964C59.2766 17.892 59.3246 17.844 59.3966 17.82C59.6606 17.556 59.9246 17.292 60.1886 17.028C60.4526 16.764 60.7406 16.524 61.0526 16.308L62.2046 15.588L63.1406 15.228C63.4526 15.132 63.7766 15.192 64.1126 15.408C64.2326 15.48 64.3166 15.564 64.3646 15.66C64.4366 15.732 64.5086 15.816 64.5806 15.912C64.6286 15.96 64.6526 16.008 64.6526 16.056C64.6766 16.08 64.7006 16.116 64.7246 16.164C64.7726 16.212 64.7966 16.272 64.7966 16.344C64.8206 16.392 64.8566 16.44 64.9046 16.488C64.9526 16.536 65.0006 16.584 65.0486 16.632C65.0966 16.656 65.1446 16.68 65.1926 16.704C65.3126 16.776 65.4446 16.848 65.5886 16.92C65.7326 16.992 65.8526 17.076 65.9486 17.172C66.1166 17.364 66.2126 17.568 66.2366 17.784C66.2366 18.048 66.2246 18.24 66.2006 18.36C66.1766 18.456 66.1406 18.6 66.0926 18.792C66.0446 18.96 65.9966 19.152 65.9486 19.368C65.9006 19.584 65.8526 19.788 65.8046 19.98C65.7806 20.172 65.7686 20.316 65.7686 20.412C65.7686 20.46 65.7686 20.484 65.7686 20.484L65.9126 20.412C66.1526 20.292 66.3806 20.172 66.5966 20.052C66.8126 19.932 67.0286 19.824 67.2446 19.728C67.3886 19.632 67.5446 19.56 67.7126 19.512C67.8806 19.44 68.0366 19.368 68.1806 19.296C68.4926 19.152 68.7206 19.056 68.8646 19.008C69.0326 18.96 69.2846 18.876 69.6206 18.756C69.6926 18.732 69.7286 18.72 69.7286 18.72C69.7526 18.72 69.7646 18.72 69.7646 18.72C69.7886 18.72 69.8486 18.708 69.9446 18.684C70.1366 18.636 70.3166 18.576 70.4846 18.504C70.6526 18.408 70.8326 18.36 71.0246 18.36C71.1206 18.384 71.1806 18.432 71.2046 18.504C71.2526 18.576 71.3246 18.636 71.4206 18.684L71.3846 18.972C71.3846 19.044 71.3726 19.08 71.3486 19.08C71.3006 19.128 71.2046 19.176 71.0606 19.224C70.8206 19.272 70.4846 19.392 70.0526 19.584C69.6206 19.752 69.2966 19.884 69.0806 19.98C68.9606 20.028 68.8766 20.064 68.8286 20.088C68.7806 20.088 68.7446 20.1 68.7206 20.124C68.6966 20.148 68.6606 20.172 68.6126 20.196C68.5886 20.196 68.5166 20.22 68.3966 20.268L68.0726 20.448C67.6406 20.664 67.2086 20.892 66.7766 21.132C66.3446 21.348 65.9246 21.588 65.5166 21.852C65.4206 21.924 65.3486 22.056 65.3006 22.248C65.2526 22.44 65.2046 22.608 65.1566 22.752C65.1326 22.896 65.1086 23.064 65.0846 23.256C65.0606 23.376 65.0366 23.496 65.0126 23.616C64.9886 23.736 64.9646 23.868 64.9406 24.012L64.5806 25.452L64.4366 26.1C64.4126 26.22 64.3766 26.328 64.3286 26.424C64.3046 26.52 64.2806 26.628 64.2566 26.748C64.1846 27.084 64.0766 27.408 63.9326 27.72C63.8606 27.864 63.7886 28.008 63.7166 28.152C63.6686 28.272 63.6446 28.428 63.6446 28.62C63.6446 28.668 63.6206 28.74 63.5726 28.836C63.3806 29.22 63.2126 29.604 63.0686 29.988C62.9486 30.372 62.7926 30.744 62.6006 31.104L62.5286 31.212C62.4566 31.452 62.3726 31.668 62.2766 31.86C62.1806 32.076 62.0606 32.28 61.9166 32.472C61.7966 32.76 61.6526 33.024 61.4846 33.264C61.3406 33.528 61.1846 33.792 61.0166 34.056C60.8966 34.248 60.7766 34.428 60.6566 34.596C60.5606 34.788 60.4286 34.968 60.2606 35.136C60.2126 35.136 60.1886 35.16 60.1886 35.208C59.9246 35.616 59.6126 35.976 59.2526 36.288C58.9166 36.6 58.5566 36.912 58.1726 37.224C57.9806 37.416 57.7766 37.572 57.5606 37.692C57.3446 37.836 57.1046 37.968 56.8406 38.088L56.1206 38.412C56.0006 38.484 55.8686 38.544 55.7246 38.592C55.5566 38.664 55.3886 38.7 55.2206 38.7H55.1846C54.9926 38.772 54.8006 38.796 54.6086 38.772C54.4166 38.772 54.2246 38.748 54.0326 38.7C53.4326 38.556 52.9046 38.208 52.4486 37.656L52.3046 37.368C52.2086 37.128 52.1366 36.888 52.0886 36.648C52.0406 36.432 52.0406 36.204 52.0886 35.964ZM54.4286 37.728C54.5486 37.728 54.7526 37.704 55.0406 37.656C55.3046 37.632 55.4966 37.596 55.6166 37.548L55.7966 37.44C55.9886 37.32 56.1926 37.2 56.4086 37.08C56.6006 36.984 56.7806 36.876 56.9486 36.756C57.0446 36.732 57.1766 36.66 57.3446 36.54C57.3686 36.516 57.4046 36.492 57.4526 36.468C57.4766 36.468 57.5126 36.444 57.5606 36.396L58.3526 35.676C58.4966 35.556 58.6166 35.436 58.7126 35.316C58.8086 35.196 58.9166 35.064 59.0366 34.92C59.1566 34.752 59.2646 34.596 59.3606 34.452C59.4806 34.308 59.6006 34.176 59.7206 34.056C59.9366 33.792 60.1406 33.48 60.3326 33.12C60.4286 32.904 60.5606 32.7 60.7286 32.508C60.8006 32.34 60.8726 32.16 60.9446 31.968C61.0166 31.776 61.1126 31.584 61.2326 31.392C61.2806 31.344 61.3046 31.308 61.3046 31.284C61.3046 31.26 61.3166 31.224 61.3406 31.176C61.3646 31.128 61.3766 31.068 61.3766 30.996C61.4006 30.924 61.4366 30.852 61.4846 30.78C61.6046 30.564 61.7126 30.324 61.8086 30.06C61.9046 29.82 62.0126 29.568 62.1326 29.304C62.1806 29.16 62.2286 29.004 62.2766 28.836C62.3246 28.692 62.3846 28.56 62.4566 28.44C62.5286 28.32 62.5766 28.2 62.6006 28.08C62.6246 27.936 62.6726 27.792 62.7446 27.648L62.8886 27.108L63.0326 26.496C63.1286 26.28 63.2006 26.064 63.2486 25.848C63.2966 25.608 63.3566 25.38 63.4286 25.164C63.4766 25.02 63.5006 24.9 63.5006 24.804L63.6446 23.976L63.8246 23.22V23.076L63.7526 23.004C63.7286 23.028 63.7046 23.04 63.6806 23.04C63.6566 23.04 63.6446 23.052 63.6446 23.076L62.8166 23.652C62.5046 23.868 62.1806 24.096 61.8446 24.336C61.5326 24.576 61.2206 24.84 60.9086 25.128L60.2246 25.704C59.9606 25.92 59.7086 26.136 59.4686 26.352C59.2286 26.544 58.9886 26.76 58.7486 27L58.0646 27.72L57.3446 28.368L56.6966 29.088C56.5046 29.352 56.3006 29.604 56.0846 29.844C55.8686 30.084 55.6646 30.336 55.4726 30.6C55.3046 30.864 55.1366 31.128 54.9686 31.392C54.7766 31.656 54.6086 31.92 54.4646 32.184C54.2246 32.496 54.0326 32.808 53.8886 33.12C53.7446 33.456 53.5886 33.804 53.4206 34.164L53.3486 34.38C53.3006 34.548 53.2646 34.716 53.2406 34.884C53.2166 35.052 53.1926 35.208 53.1686 35.352C53.0966 35.64 53.0846 35.964 53.1326 36.324C53.1566 36.372 53.1686 36.456 53.1686 36.576C53.0966 36.696 53.1206 36.816 53.2406 36.936C53.3126 37.056 53.3966 37.164 53.4926 37.26C53.5886 37.38 53.6966 37.5 53.8166 37.62C53.8646 37.644 53.9246 37.668 53.9966 37.692C54.0446 37.716 54.1046 37.728 54.1766 37.728H54.4286ZM63.3566 16.704C63.2126 16.68 63.0926 16.68 62.9966 16.704C62.9006 16.728 62.7926 16.764 62.6726 16.812L62.2766 16.992C62.2046 16.992 62.1686 17.004 62.1686 17.028C61.9046 17.196 61.6286 17.376 61.3406 17.568C61.0526 17.76 60.8126 17.988 60.6206 18.252L59.8286 18.936C59.6846 19.128 59.5646 19.308 59.4686 19.476C59.3726 19.62 59.2646 19.776 59.1446 19.944L58.9286 20.34C58.8566 20.436 58.8446 20.568 58.8926 20.736C58.8926 20.784 58.9166 20.808 58.9646 20.808C59.1806 20.808 59.3366 20.772 59.4326 20.7C59.8166 20.556 60.1526 20.376 60.4406 20.16C60.5606 20.088 60.6686 20.016 60.7646 19.944C60.8606 19.848 60.9686 19.752 61.0886 19.656C61.2086 19.584 61.2926 19.524 61.3406 19.476C61.4846 19.38 61.5926 19.296 61.6646 19.224C61.7366 19.128 61.8326 19.02 61.9526 18.9C62.0966 18.804 62.2286 18.708 62.3486 18.612C62.4926 18.492 62.6366 18.372 62.7806 18.252C62.8766 18.132 62.9606 18.024 63.0326 17.928C63.1286 17.832 63.2366 17.748 63.3566 17.676C63.4526 17.628 63.5366 17.556 63.6086 17.46C63.6806 17.34 63.7526 17.244 63.8246 17.172C63.8966 17.172 63.8966 17.136 63.8246 17.064C63.7766 16.968 63.6806 16.872 63.5366 16.776L63.3926 16.704H63.3566Z" fill="#151515"/>
<path d="M79.7797 21.06C79.9717 20.94 80.1277 20.856 80.2477 20.808C80.3917 20.736 80.5597 20.628 80.7517 20.484C81.3277 20.1 81.8677 19.68 82.3717 19.224C82.4677 19.104 82.5517 19.032 82.6237 19.008C82.7197 18.96 82.8157 18.876 82.9117 18.756L83.1997 18.432C83.2477 18.336 83.2837 18.288 83.3077 18.288C83.3317 18.288 83.3797 18.216 83.4517 18.072V18C83.4517 17.976 83.4997 17.964 83.5957 17.964C83.6437 17.916 83.7037 17.904 83.7757 17.928C83.8717 17.952 83.9437 18 83.9917 18.072C84.0397 18.12 84.0757 18.18 84.0997 18.252C84.1237 18.324 84.1117 18.396 84.0637 18.468C84.0397 18.612 84.0277 18.672 84.0277 18.648C84.0277 18.624 83.9797 18.672 83.8837 18.792C83.8357 18.912 83.7877 18.996 83.7397 19.044C83.7157 19.068 83.6437 19.164 83.5237 19.332C83.2597 19.596 83.0317 19.824 82.8397 20.016C82.6477 20.208 82.3957 20.436 82.0837 20.7C81.9637 20.82 81.8197 20.928 81.6517 21.024C81.5077 21.12 81.3637 21.228 81.2197 21.348C81.0037 21.492 80.7757 21.624 80.5357 21.744C80.2957 21.864 80.0437 21.948 79.7797 21.996C79.6357 22.044 79.4917 22.068 79.3477 22.068C79.2037 22.068 79.0717 22.08 78.9517 22.104C78.5677 22.128 78.1597 22.056 77.7277 21.888C77.2957 21.72 76.9597 21.54 76.7197 21.348C76.5037 21.108 76.2997 20.88 76.1077 20.664C75.9157 20.424 75.7477 20.16 75.6037 19.872C75.4117 19.536 75.2797 19.152 75.2077 18.72C75.1357 18.264 75.0997 17.868 75.0997 17.532C75.1237 17.484 75.1117 17.388 75.0637 17.244C75.0157 17.124 75.0037 17.004 75.0277 16.884C75.0517 16.74 75.0517 16.608 75.0277 16.488C75.0517 16.464 75.0517 16.44 75.0277 16.416C75.0037 16.392 74.9797 16.392 74.9557 16.416C74.8117 16.464 74.6797 16.536 74.5597 16.632C74.4637 16.704 74.3677 16.776 74.2717 16.848C73.9357 17.112 73.6117 17.388 73.2997 17.676C73.0117 17.964 72.7357 18.288 72.4717 18.648C72.2557 18.864 72.0637 19.092 71.8957 19.332C71.8477 19.404 71.7877 19.512 71.7157 19.656C71.6677 19.776 71.6077 19.92 71.5357 20.088C71.4877 20.232 71.4277 20.388 71.3557 20.556C71.3077 20.7 71.2477 20.808 71.1757 20.88C71.1277 20.952 71.0677 21.024 70.9957 21.096C70.9237 21.144 70.8517 21.204 70.7797 21.276C70.7317 21.348 70.6237 21.384 70.4557 21.384C70.3597 21.384 70.3357 21.372 70.3837 21.348C70.4317 21.324 70.4317 21.288 70.3837 21.24L69.9157 20.916C69.7957 20.772 69.7837 20.628 69.8797 20.484C69.8797 20.34 69.9037 20.244 69.9517 20.196C70.0477 20.028 70.1317 19.824 70.2037 19.584C70.2757 19.32 70.3477 19.056 70.4197 18.792C70.4677 18.504 70.5277 18.24 70.5997 18C70.6717 17.736 70.7557 17.508 70.8517 17.316L70.9957 16.92C71.0197 16.872 71.0437 16.788 71.0677 16.668C71.1157 16.524 71.1517 16.38 71.1757 16.236C71.2237 16.092 71.2597 15.96 71.2837 15.84C71.3317 15.72 71.3677 15.624 71.3917 15.552C71.3677 15.408 71.4637 15.312 71.6797 15.264C72.0157 15.216 72.2917 15.288 72.5077 15.48C72.5317 15.504 72.5317 15.576 72.5077 15.696C72.5077 15.792 72.4957 15.912 72.4717 16.056C72.4477 16.176 72.4237 16.296 72.3997 16.416C72.3997 16.512 72.4117 16.572 72.4357 16.596C72.4837 16.668 72.5317 16.68 72.5797 16.632C72.7477 16.488 72.9277 16.32 73.1197 16.128C73.3117 15.936 73.4917 15.78 73.6597 15.66C73.8517 15.54 74.0437 15.468 74.2357 15.444C74.4277 15.396 74.6197 15.36 74.8117 15.336H74.9917C75.3277 15.408 75.6397 15.564 75.9277 15.804C76.0237 15.852 76.0957 15.972 76.1437 16.164C76.1917 16.332 76.2277 16.488 76.2517 16.632C76.2757 16.776 76.2757 16.92 76.2517 17.064C76.2517 17.208 76.2397 17.34 76.2157 17.46C76.1917 17.556 76.1917 17.7 76.2157 17.892V18.144C76.1917 18.408 76.2157 18.648 76.2877 18.864C76.3837 19.08 76.4557 19.308 76.5037 19.548C76.5517 19.644 76.5997 19.752 76.6477 19.872C76.6957 19.968 76.7557 20.04 76.8277 20.088C76.9237 20.232 77.0077 20.364 77.0797 20.484C77.1517 20.58 77.2477 20.676 77.3677 20.772C77.7037 21.108 78.0997 21.276 78.5557 21.276C79.0357 21.276 79.4437 21.204 79.7797 21.06Z" fill="#151515"/>
<path d="M84.4163 22.428C84.1523 22.38 83.8763 22.344 83.5883 22.32C83.3243 22.272 83.0963 22.164 82.9043 21.996C82.6403 21.732 82.4003 21.444 82.1843 21.132C81.9443 20.82 81.8483 20.472 81.8963 20.088C81.8963 20.04 81.9083 19.944 81.9323 19.8C81.9323 19.632 81.9563 19.524 82.0043 19.476L82.0763 19.26C82.1963 18.972 82.2803 18.78 82.3283 18.684C82.3763 18.588 82.4843 18.408 82.6523 18.144C83.0603 17.52 83.5883 16.944 84.2363 16.416C84.4283 16.248 84.6443 16.092 84.8843 15.948C85.1243 15.78 85.3883 15.624 85.6763 15.48C85.7483 15.48 85.8443 15.444 85.9643 15.372C86.1563 15.3 86.3483 15.312 86.5403 15.408C86.7563 15.504 86.9243 15.612 87.0443 15.732L87.1883 16.092C87.2603 16.668 87.1163 17.136 86.7563 17.496C86.4923 17.808 86.2043 18.108 85.8923 18.396C85.6043 18.684 85.2923 18.96 84.9563 19.224C84.9083 19.272 84.8363 19.32 84.7403 19.368C84.6683 19.416 84.6083 19.464 84.5603 19.512C84.4883 19.584 84.3923 19.632 84.2723 19.656C84.1763 19.656 84.0683 19.668 83.9483 19.692C83.7563 19.812 83.5883 19.776 83.4443 19.584L83.3003 19.476H83.2283C83.2043 19.476 83.1923 19.488 83.1923 19.512C83.0723 19.68 83.0003 19.872 82.9763 20.088C82.9763 20.304 82.9763 20.496 82.9763 20.664C83.0003 20.784 83.0843 20.916 83.2283 21.06C83.3243 21.18 83.4323 21.264 83.5523 21.312C83.6963 21.36 83.8283 21.384 83.9483 21.384C84.0443 21.408 84.1763 21.42 84.3443 21.42C84.5363 21.396 84.7403 21.384 84.9563 21.384C85.1963 21.384 85.4363 21.336 85.6763 21.24C86.5643 21.024 87.3683 20.76 88.0883 20.448C88.8083 20.136 89.5403 19.812 90.2843 19.476C90.6683 19.284 91.0163 19.104 91.3283 18.936C91.6643 18.744 92.0003 18.564 92.3363 18.396C92.5523 18.276 92.6843 18.204 92.7323 18.18C92.7803 18.132 92.9243 18.024 93.1643 17.856C93.2843 17.736 93.3443 17.688 93.3443 17.712C93.3683 17.712 93.4763 17.676 93.6683 17.604C93.7163 17.556 93.7283 17.556 93.7043 17.604C93.7043 17.628 93.7163 17.676 93.7403 17.748C93.7643 17.844 93.7883 17.964 93.8123 18.108C93.8603 18.228 93.8363 18.324 93.7403 18.396C93.5723 18.564 93.5003 18.66 93.5243 18.684C93.5483 18.684 93.4763 18.756 93.3083 18.9C92.9483 19.164 92.5883 19.392 92.2283 19.584C91.8683 19.776 91.4963 19.992 91.1123 20.232C90.8483 20.352 90.5963 20.472 90.3563 20.592C90.1403 20.712 89.9243 20.82 89.7083 20.916C89.2283 21.108 88.7363 21.312 88.2323 21.528C87.7523 21.72 87.2483 21.876 86.7203 21.996L85.6763 22.284C85.4123 22.356 85.2083 22.404 85.0643 22.428C84.9203 22.428 84.7043 22.428 84.4163 22.428ZM83.9483 18.576C84.3563 18.336 84.7403 18.048 85.1003 17.712C85.4603 17.376 85.8083 17.004 86.1443 16.596C86.1203 16.596 86.0963 16.608 86.0723 16.632C86.0483 16.632 86.0243 16.632 86.0003 16.632C85.5443 16.824 85.1483 17.052 84.8123 17.316C84.5003 17.58 84.2483 17.916 84.0563 18.324C84.0323 18.324 83.9963 18.408 83.9483 18.576Z" fill="#151515"/>
<path d="M98.8287 24.804C98.8047 24.756 98.7807 24.72 98.7567 24.696C98.7327 24.648 98.7207 24.588 98.7207 24.516C98.7687 24.372 98.7567 24.204 98.6847 24.012C98.6367 23.796 98.6487 23.64 98.7207 23.544C98.6967 23.424 98.6847 23.304 98.6847 23.184C98.7087 23.064 98.7087 22.944 98.6847 22.824C98.7087 22.776 98.7087 22.728 98.6847 22.68C98.6607 22.608 98.6727 22.548 98.7207 22.5C98.7207 22.476 98.7207 22.464 98.7207 22.464C98.7447 22.44 98.7567 22.416 98.7567 22.392C98.7087 22.272 98.6967 22.14 98.7207 21.996C98.7687 21.828 98.7927 21.684 98.7927 21.564C98.8407 21.42 98.8767 21.288 98.9007 21.168C98.9247 21.024 98.9487 20.88 98.9727 20.736C98.9727 20.64 98.9967 20.484 99.0447 20.268C99.0927 20.052 99.1407 19.812 99.1887 19.548C99.2367 19.284 99.2847 19.02 99.3327 18.756C99.4047 18.468 99.4527 18.216 99.4767 18C99.5007 17.952 99.4527 18.024 99.3327 18.216C99.2367 18.384 99.1887 18.492 99.1887 18.54C99.1167 18.588 99.0087 18.72 98.8647 18.936C98.7447 19.128 98.6367 19.248 98.5407 19.296C98.2767 19.632 97.9887 19.932 97.6767 20.196C97.3887 20.46 97.0887 20.748 96.7767 21.06C96.5607 21.3 96.3447 21.504 96.1287 21.672C95.9127 21.84 95.6967 22.02 95.4807 22.212L95.3007 22.356C94.8687 22.692 94.4127 22.896 93.9327 22.968C93.6447 23.04 93.3207 23.052 92.9607 23.004C92.7447 22.956 92.5767 22.908 92.4567 22.86C92.3127 22.788 92.1927 22.656 92.0967 22.464C91.8567 22.272 91.7247 22.044 91.7007 21.78C91.6767 21.732 91.6647 21.672 91.6647 21.6L91.7367 20.772C91.7367 20.676 91.7607 20.604 91.8087 20.556C91.9047 20.46 91.9527 20.292 91.9527 20.052C91.9527 20.028 91.9647 20.004 91.9887 19.98C92.0127 19.956 92.0367 19.92 92.0607 19.872C92.1327 19.752 92.1927 19.608 92.2407 19.44C92.2887 19.272 92.3367 19.128 92.3847 19.008C92.5047 18.84 92.6127 18.684 92.7087 18.54C92.7807 18.396 92.8767 18.252 92.9967 18.108C93.0927 17.964 93.2007 17.82 93.3207 17.676C93.4407 17.532 93.5367 17.4 93.6087 17.28C93.6567 17.232 93.7047 17.172 93.7527 17.1C93.8247 17.028 93.8847 16.944 93.9327 16.848L94.0047 16.812C94.1727 16.644 94.3287 16.476 94.4727 16.308C94.6407 16.14 94.8207 16.008 95.0127 15.912C95.1087 15.864 95.1927 15.828 95.2647 15.804C95.3367 15.78 95.4087 15.756 95.4807 15.732C95.5047 15.684 95.5647 15.66 95.6607 15.66H96.1287C96.2487 15.66 96.3807 15.696 96.5247 15.768C96.6687 15.84 96.8007 15.9 96.9207 15.948C97.1127 16.068 97.2567 16.236 97.3527 16.452C97.4727 16.644 97.5567 16.848 97.6047 17.064L97.7847 17.496C97.8327 17.544 97.8207 17.604 97.7487 17.676C97.6767 17.724 97.6047 17.76 97.5327 17.784C97.4367 17.832 97.3407 17.856 97.2447 17.856C97.0527 17.856 96.9207 17.82 96.8487 17.748C96.8007 17.628 96.7647 17.556 96.7407 17.532C96.7167 17.484 96.7047 17.424 96.7047 17.352C96.6567 17.232 96.6087 17.112 96.5607 16.992C96.5127 16.848 96.4287 16.728 96.3087 16.632C96.2847 16.56 96.2847 16.524 96.3087 16.524C96.3327 16.524 96.3207 16.5 96.2727 16.452C96.1767 16.38 96.0567 16.38 95.9127 16.452C95.7927 16.5 95.7087 16.548 95.6607 16.596L95.2287 17.028C94.9647 17.364 94.7007 17.712 94.4367 18.072C94.1727 18.408 93.9207 18.756 93.6807 19.116C93.5607 19.38 93.4407 19.68 93.3207 20.016C93.2007 20.328 93.1047 20.64 93.0327 20.952C93.0327 21.048 93.0207 21.144 92.9967 21.24C92.9727 21.336 92.9607 21.444 92.9607 21.564C92.9127 21.684 92.9127 21.804 92.9607 21.924C93.0087 22.02 93.0567 22.116 93.1047 22.212C93.1527 22.284 93.2007 22.308 93.2487 22.284C93.2967 22.26 93.3567 22.248 93.4287 22.248C93.4287 22.248 93.4647 22.248 93.5367 22.248C93.7527 22.2 93.9087 22.14 94.0047 22.068C94.1247 21.972 94.2807 21.876 94.4727 21.78C95.2647 21.204 95.9727 20.592 96.5967 19.944C96.7167 19.824 96.8247 19.692 96.9207 19.548C97.0407 19.404 97.1727 19.26 97.3167 19.116C97.4367 19.044 97.5567 18.936 97.6767 18.792C97.7967 18.648 97.9167 18.492 98.0367 18.324C98.0847 18.252 98.1447 18.192 98.2167 18.144C98.2887 18.072 98.3607 18 98.4327 17.928C98.4807 17.832 98.5647 17.712 98.6847 17.568C98.8287 17.4 98.9247 17.244 98.9727 17.1C99.0207 17.052 99.0687 17.016 99.1167 16.992C99.1647 16.944 99.2007 16.884 99.2247 16.812C99.2967 16.692 99.3567 16.584 99.4047 16.488C99.4527 16.392 99.5127 16.296 99.5847 16.2C99.7287 15.936 99.8367 15.66 99.9087 15.372C100.005 14.94 100.113 14.508 100.233 14.076C100.353 13.644 100.485 13.2 100.629 12.744L100.845 12.024C100.893 11.88 100.941 11.724 100.989 11.556C101.061 11.364 101.133 11.172 101.205 10.98C101.205 10.932 101.229 10.86 101.277 10.764C101.349 10.332 101.457 9.912 101.601 9.504C101.769 9.096 101.949 8.724 102.141 8.388C102.261 8.124 102.369 7.884 102.465 7.668C102.561 7.428 102.645 7.176 102.717 6.912C102.789 6.84 102.825 6.756 102.825 6.66C103.041 6.348 103.185 6.06 103.257 5.796C103.449 5.46 103.641 5.136 103.833 4.824C104.049 4.488 104.265 4.152 104.481 3.816C104.577 3.672 104.721 3.54 104.913 3.42C104.913 3.396 104.937 3.384 104.985 3.384C105.177 3.408 105.345 3.432 105.489 3.456C105.657 3.456 105.837 3.48 106.029 3.528C106.077 3.552 106.137 3.576 106.209 3.6C106.281 3.6 106.329 3.612 106.353 3.636C106.761 3.948 106.929 4.344 106.857 4.824C106.809 5.16 106.749 5.52 106.677 5.904C106.605 6.264 106.497 6.612 106.353 6.948C106.329 6.996 106.317 7.068 106.317 7.164C106.221 7.428 106.113 7.68 105.993 7.92C105.897 8.16 105.789 8.4 105.669 8.64C105.549 8.88 105.429 9.108 105.309 9.324C105.189 9.54 105.069 9.756 104.949 9.972C104.805 10.26 104.661 10.524 104.517 10.764C104.397 11.004 104.253 11.256 104.085 11.52C103.845 11.952 103.593 12.396 103.329 12.852C103.089 13.284 102.801 13.716 102.465 14.148C102.297 14.412 102.105 14.688 101.889 14.976C101.697 15.24 101.493 15.528 101.277 15.84C101.205 15.984 101.121 16.116 101.025 16.236C100.953 16.356 100.917 16.488 100.917 16.632L100.557 18.252C100.389 18.852 100.245 19.596 100.125 20.484C100.029 21.348 99.9447 22.296 99.8727 23.328C99.8487 23.376 99.8487 23.424 99.8727 23.472C99.8967 23.52 99.9087 23.568 99.9087 23.616C99.9327 23.88 99.9567 24.096 99.9807 24.264C100.005 24.408 100.029 24.552 100.053 24.696C100.077 24.816 100.089 24.924 100.089 25.02C100.113 25.116 100.173 25.224 100.269 25.344C100.389 25.536 100.461 25.668 100.485 25.74C100.509 25.788 100.629 25.872 100.845 25.992C100.989 26.04 101.049 26.052 101.025 26.028C101.025 26.004 101.085 26.016 101.205 26.064C101.301 26.112 101.313 26.196 101.241 26.316C101.193 26.412 101.133 26.484 101.061 26.532C100.941 26.556 100.893 26.568 100.917 26.568C100.965 26.544 100.953 26.544 100.881 26.568C100.617 26.64 100.377 26.64 100.161 26.568C99.9447 26.496 99.7647 26.388 99.6207 26.244C99.5247 26.124 99.4167 26.016 99.2967 25.92C99.2007 25.824 99.1287 25.728 99.0807 25.632C99.1527 25.56 99.1527 25.524 99.0807 25.524C98.9607 25.356 98.9007 25.176 98.9007 24.984C98.9007 24.96 98.8887 24.936 98.8647 24.912C98.8407 24.888 98.8287 24.852 98.8287 24.804ZM101.313 14.004C101.505 13.692 101.685 13.404 101.853 13.14C102.045 12.876 102.237 12.6 102.429 12.312C102.477 12.216 102.525 12.132 102.573 12.06C102.645 11.964 102.717 11.88 102.789 11.808C102.837 11.688 102.873 11.592 102.897 11.52C102.921 11.424 102.957 11.328 103.005 11.232C103.125 11.016 103.221 10.848 103.293 10.728C103.365 10.608 103.461 10.488 103.581 10.368C103.629 10.32 103.653 10.272 103.653 10.224C103.653 10.176 103.653 10.14 103.653 10.116C103.893 9.66 104.121 9.204 104.337 8.748C104.553 8.268 104.781 7.764 105.021 7.236C105.093 6.924 105.165 6.612 105.237 6.3C105.309 5.988 105.405 5.664 105.525 5.328C105.573 5.064 105.561 4.86 105.489 4.716C105.489 4.692 105.477 4.68 105.453 4.68H105.345C105.273 4.728 105.189 4.86 105.093 5.076C104.949 5.292 104.805 5.532 104.661 5.796C104.541 6.036 104.421 6.264 104.301 6.48C103.965 7.128 103.653 7.74 103.365 8.316C103.077 8.892 102.813 9.528 102.573 10.224C102.453 10.392 102.369 10.536 102.321 10.656C102.273 10.776 102.237 10.908 102.213 11.052C102.045 11.484 101.877 11.928 101.709 12.384C101.541 12.84 101.409 13.272 101.313 13.68C101.217 13.752 101.193 13.872 101.241 14.04H101.277C101.277 14.04 101.289 14.028 101.313 14.004Z" fill="#151515"/>
<path d="M114.472 17.928C114.424 18.024 114.4 18.108 114.4 18.18C114.4 18.228 114.376 18.276 114.328 18.324L114.22 18.576C114.34 18.504 114.544 18.384 114.832 18.216C115.144 18.048 115.348 17.928 115.444 17.856V17.82C115.66 17.676 115.864 17.568 116.056 17.496C116.272 17.424 116.476 17.364 116.668 17.316C117.1 17.172 117.532 17.076 117.964 17.028C118.108 17.004 118.312 17.016 118.576 17.064C118.84 17.112 119.08 17.208 119.296 17.352C119.488 17.4 119.656 17.508 119.8 17.676C119.968 17.82 120.136 17.976 120.304 18.144C120.352 18.264 120.376 18.384 120.376 18.504C120.4 18.624 120.436 18.744 120.484 18.864C120.484 19.056 120.472 19.224 120.448 19.368C120.424 19.512 120.388 19.68 120.34 19.872C120.244 20.088 120.124 20.292 119.98 20.484C119.836 20.652 119.668 20.832 119.476 21.024L118.9 21.6C118.78 21.72 118.672 21.828 118.576 21.924C118.48 22.02 118.372 22.092 118.252 22.14C118.06 22.26 117.88 22.356 117.712 22.428C117.544 22.5 117.376 22.584 117.208 22.68C116.944 22.8 116.68 22.908 116.416 23.004C116.152 23.1 115.852 23.172 115.516 23.22C115.156 23.34 114.844 23.352 114.58 23.256C114.148 23.184 113.836 23.088 113.644 22.968C113.548 22.968 113.488 22.932 113.464 22.86C113.44 22.86 113.428 22.812 113.428 22.716V22.572H113.536C113.728 22.62 113.92 22.632 114.112 22.608C114.328 22.584 114.556 22.548 114.796 22.5L114.976 22.464C115.168 22.416 115.276 22.38 115.3 22.356C115.348 22.308 115.468 22.248 115.66 22.176C115.9 22.104 116.14 22.008 116.38 21.888C116.644 21.768 116.884 21.624 117.1 21.456L117.424 21.24C117.64 21.12 117.832 20.964 118 20.772C118.192 20.556 118.384 20.352 118.576 20.16C118.672 20.016 118.756 19.884 118.828 19.764C118.924 19.62 119.008 19.476 119.08 19.332C119.128 19.212 119.164 19.104 119.188 19.008C119.212 18.888 119.212 18.768 119.188 18.648L119.224 18.324C119.176 18.108 119.056 17.964 118.864 17.892C118.768 17.844 118.672 17.832 118.576 17.856C118.504 17.856 118.42 17.844 118.324 17.82C117.988 17.844 117.688 17.928 117.424 18.072C117.16 18.192 116.86 18.324 116.524 18.468C116.164 18.612 115.864 18.804 115.624 19.044L115.228 19.332C114.964 19.596 114.688 19.896 114.4 20.232C114.136 20.544 113.908 20.916 113.716 21.348L113.428 22.14C113.428 22.164 113.416 22.188 113.392 22.212C113.272 22.476 113.116 22.524 112.924 22.356C112.804 22.308 112.672 22.236 112.528 22.14C112.36 22.02 112.228 21.924 112.132 21.852C112.06 21.78 112.048 21.708 112.096 21.636L112.276 20.988C112.468 20.556 112.624 20.112 112.744 19.656C112.864 19.2 112.984 18.744 113.104 18.288L113.14 18.036H113.176L113.212 17.892C113.236 17.796 113.248 17.712 113.248 17.64C113.248 17.544 113.272 17.46 113.32 17.388C113.416 17.292 113.464 17.196 113.464 17.1C113.488 16.98 113.512 16.872 113.536 16.776C113.584 16.608 113.632 16.428 113.68 16.236C113.728 16.02 113.776 15.84 113.824 15.696C113.848 15.576 113.908 15.468 114.004 15.372C114.052 15.276 114.1 15.192 114.148 15.12C114.22 15.048 114.256 14.916 114.256 14.724C114.304 14.58 114.34 14.448 114.364 14.328C114.412 14.184 114.472 14.064 114.544 13.968L114.652 13.68C114.676 13.488 114.712 13.308 114.76 13.14C114.808 12.948 114.904 12.756 115.048 12.564V12.492C115.168 12.324 115.252 12.12 115.3 11.88C115.348 11.64 115.456 11.4 115.624 11.16C115.696 10.944 115.768 10.728 115.84 10.512C115.912 10.296 115.984 10.092 116.056 9.9C116.104 9.852 116.128 9.816 116.128 9.792C116.08 9.744 116.104 9.624 116.2 9.432C116.296 9.24 116.368 9.084 116.416 8.964C116.416 8.94 116.452 8.82 116.524 8.604C116.596 8.388 116.668 8.16 116.74 7.92C116.836 7.68 116.92 7.464 116.992 7.272C117.088 7.056 117.148 6.924 117.172 6.876C117.22 6.756 117.244 6.624 117.244 6.48C117.244 6.336 117.244 6.204 117.244 6.084C117.316 5.82 117.328 5.592 117.28 5.4C117.328 5.064 117.544 4.944 117.928 5.04C117.976 5.064 118.012 5.088 118.036 5.112C118.084 5.112 118.156 5.112 118.252 5.112C118.42 5.184 118.516 5.28 118.54 5.4C118.588 5.472 118.624 5.544 118.648 5.616C118.672 5.664 118.708 5.712 118.756 5.76C118.756 5.808 118.744 5.856 118.72 5.904C118.72 5.952 118.72 5.988 118.72 6.012C118.672 6.276 118.612 6.516 118.54 6.732C118.492 6.948 118.408 7.152 118.288 7.344L118.036 8.208L117.892 8.532C117.868 8.652 117.856 8.724 117.856 8.748C117.88 8.772 117.892 8.796 117.892 8.82C117.892 8.82 117.868 8.856 117.82 8.928C117.796 8.976 117.736 9.096 117.64 9.288L117.604 9.504C117.268 10.272 116.956 11.04 116.668 11.808C116.38 12.576 116.104 13.356 115.84 14.148C115.576 14.7 115.324 15.288 115.084 15.912C114.868 16.512 114.688 17.112 114.544 17.712L114.436 17.928H114.472Z" fill="#151515"/>
<path d="M129.86 18.18C129.812 18.444 129.764 18.708 129.716 18.972C129.692 19.236 129.632 19.5 129.536 19.764C129.512 19.884 129.476 20.04 129.428 20.232C129.404 20.424 129.452 20.448 129.572 20.304C129.788 20.184 129.968 20.088 130.112 20.016C130.28 19.92 130.46 19.812 130.652 19.692C130.94 19.596 131.228 19.452 131.516 19.26C131.684 19.212 131.84 19.152 131.984 19.08C132.152 19.008 132.32 18.936 132.488 18.864C132.656 18.792 132.824 18.732 132.992 18.684C133.16 18.612 133.328 18.552 133.496 18.504C133.904 18.36 134.192 18.264 134.36 18.216C134.552 18.168 134.804 18.12 135.116 18.072C135.188 18.072 135.236 18.072 135.26 18.072C135.308 18.048 135.356 18.036 135.404 18.036C135.572 18.036 135.74 18.024 135.908 18C136.1 17.976 136.196 18.048 136.196 18.216C136.244 18.216 136.268 18.264 136.268 18.36C136.268 18.432 136.232 18.492 136.16 18.54C136.064 18.54 135.992 18.564 135.944 18.612L134.684 18.972C134.492 19.02 134.288 19.092 134.072 19.188C133.856 19.26 133.652 19.332 133.46 19.404L133.172 19.548C132.572 19.812 131.984 20.088 131.408 20.376C130.856 20.664 130.304 20.988 129.752 21.348C129.704 21.348 129.644 21.384 129.572 21.456C129.5 21.504 129.452 21.552 129.428 21.6C129.26 21.672 129.176 21.792 129.176 21.96L129.068 22.392C129.044 22.56 129.02 22.716 128.996 22.86C128.972 22.98 128.936 23.1 128.888 23.22C128.84 23.364 128.816 23.52 128.816 23.688C128.816 23.832 128.78 23.964 128.708 24.084C128.684 24.108 128.672 24.144 128.672 24.192C128.672 24.456 128.636 24.696 128.564 24.912C128.492 25.104 128.432 25.308 128.384 25.524L128.204 26.064C128.084 26.472 127.952 26.88 127.808 27.288C127.688 27.672 127.544 28.068 127.376 28.476C127.256 28.74 127.136 29.004 127.016 29.268C126.92 29.556 126.8 29.832 126.656 30.096C126.44 30.552 126.212 30.996 125.972 31.428C125.732 31.884 125.492 32.316 125.252 32.724C125.06 32.94 124.868 33.168 124.676 33.408C124.508 33.672 124.316 33.924 124.1 34.164C123.668 34.74 123.104 35.28 122.408 35.784C122.24 35.904 122.06 36.024 121.868 36.144C121.652 36.288 121.424 36.396 121.184 36.468C120.56 36.708 119.984 36.756 119.456 36.612L118.772 36.36C118.748 36.36 118.736 36.348 118.736 36.324C118.736 36.324 118.724 36.324 118.7 36.324C118.58 36.204 118.46 36.072 118.34 35.928C118.22 35.808 118.112 35.664 118.016 35.496C117.968 35.304 117.92 35.088 117.872 34.848C117.824 34.608 117.8 34.38 117.8 34.164C117.824 34.092 117.836 34.02 117.836 33.948C117.812 33.876 117.8 33.792 117.8 33.696C117.824 33.504 117.848 33.3 117.872 33.084C117.872 32.892 117.908 32.7 117.98 32.508C117.98 32.46 117.992 32.412 118.016 32.364C118.04 32.34 118.052 32.304 118.052 32.256C118.076 32.064 118.124 31.86 118.196 31.644C118.268 31.428 118.34 31.224 118.412 31.032C118.604 30.624 118.82 30.216 119.06 29.808C119.276 29.4 119.516 29.028 119.78 28.692C119.972 28.428 120.164 28.188 120.356 27.972C120.548 27.732 120.74 27.48 120.932 27.216C121.076 27.072 121.208 26.916 121.328 26.748C121.448 26.58 121.592 26.424 121.76 26.28C121.808 26.232 121.844 26.196 121.868 26.172C121.868 26.124 121.892 26.088 121.94 26.064C122.156 25.896 122.36 25.728 122.552 25.56C122.72 25.368 122.9 25.188 123.092 25.02C123.308 24.756 123.548 24.528 123.812 24.336C124.1 24.12 124.376 23.892 124.64 23.652C125.024 23.388 125.384 23.124 125.72 22.86C126.08 22.572 126.464 22.296 126.872 22.032C127.04 21.912 127.208 21.78 127.376 21.636C127.568 21.492 127.748 21.36 127.916 21.24C127.988 21.192 128.06 21.144 128.132 21.096C128.204 21.024 128.24 20.928 128.24 20.808C128.288 20.616 128.312 20.448 128.312 20.304C128.312 20.136 128.348 19.944 128.42 19.728C128.42 19.68 128.42 19.62 128.42 19.548C128.444 19.476 128.456 19.404 128.456 19.332L128.672 17.604V17.532C128.648 17.532 128.624 17.544 128.6 17.568C128.6 17.568 128.588 17.568 128.564 17.568L128.132 18.072C127.844 18.384 127.568 18.696 127.304 19.008C127.04 19.32 126.74 19.62 126.404 19.908C126.38 19.932 126.356 19.956 126.332 19.98C126.308 19.98 126.284 20.004 126.26 20.052C126.044 20.244 125.84 20.412 125.648 20.556C125.456 20.676 125.24 20.796 125 20.916C124.688 21.084 124.34 21.156 123.956 21.132C123.908 21.132 123.86 21.132 123.812 21.132C123.764 21.108 123.716 21.096 123.668 21.096C123.38 21.096 123.152 20.964 122.984 20.7C122.816 20.46 122.732 20.232 122.732 20.016C122.708 19.8 122.72 19.56 122.768 19.296C122.816 19.128 122.852 18.972 122.876 18.828C122.924 18.66 122.972 18.504 123.02 18.36C123.116 18.144 123.224 17.88 123.344 17.568C123.464 17.256 123.572 17.004 123.668 16.812C123.788 16.644 123.956 16.584 124.172 16.632C124.22 16.68 124.28 16.716 124.352 16.74C124.424 16.74 124.484 16.752 124.532 16.776C124.628 16.824 124.7 16.92 124.748 17.064C124.796 17.184 124.796 17.304 124.748 17.424L124.316 18.432C124.268 18.576 124.22 18.72 124.172 18.864C124.124 18.984 124.076 19.104 124.028 19.224C123.956 19.344 123.908 19.488 123.884 19.656C123.884 19.824 123.872 19.968 123.848 20.088C123.848 20.136 123.86 20.172 123.884 20.196C123.932 20.22 123.98 20.22 124.028 20.196L124.532 19.944C124.82 19.728 125.096 19.512 125.36 19.296C125.624 19.056 125.888 18.78 126.152 18.468L127.484 16.992L127.844 16.452C127.964 16.332 128.072 16.212 128.168 16.092C128.288 15.948 128.408 15.816 128.528 15.696C128.672 15.504 128.876 15.48 129.14 15.624C129.212 15.624 129.272 15.636 129.32 15.66C129.392 15.684 129.452 15.708 129.5 15.732C129.764 15.9 129.908 16.104 129.932 16.344C129.932 16.512 129.932 16.68 129.932 16.848C129.956 16.992 129.956 17.16 129.932 17.352C129.884 17.472 129.86 17.604 129.86 17.748C129.884 17.868 129.884 18.012 129.86 18.18ZM118.952 33.408C118.832 33.936 118.808 34.356 118.88 34.668C118.904 34.956 118.976 35.208 119.096 35.424C119.12 35.544 119.252 35.7 119.492 35.892C119.588 35.964 119.72 36 119.888 36C120.08 35.952 120.236 35.904 120.356 35.856L121.292 35.388C121.58 35.196 121.844 34.98 122.084 34.74C122.3 34.524 122.54 34.284 122.804 34.02C123.068 33.732 123.32 33.408 123.56 33.048C123.824 32.688 124.076 32.316 124.316 31.932C124.508 31.62 124.676 31.308 124.82 30.996C124.988 30.708 125.144 30.42 125.288 30.132C125.624 29.58 125.888 29.016 126.08 28.44C126.296 27.888 126.5 27.324 126.692 26.748C127.028 25.956 127.268 25.188 127.412 24.444C127.412 24.42 127.424 24.396 127.448 24.372C127.472 24.348 127.484 24.312 127.484 24.264C127.58 24.072 127.652 23.832 127.7 23.544C127.748 23.256 127.796 23.016 127.844 22.824C127.868 22.776 127.892 22.716 127.916 22.644C127.94 22.548 127.952 22.476 127.952 22.428C127.952 22.38 127.928 22.356 127.88 22.356C127.88 22.332 127.868 22.332 127.844 22.356L127.412 22.788C127.148 22.956 126.896 23.148 126.656 23.364C126.416 23.58 126.176 23.772 125.936 23.94L125.468 24.3C125.444 24.372 125.36 24.456 125.216 24.552C124.952 24.744 124.7 24.948 124.46 25.164C124.244 25.38 124.04 25.584 123.848 25.776C123.584 26.016 123.344 26.232 123.128 26.424C122.912 26.616 122.696 26.832 122.48 27.072C121.952 27.624 121.472 28.2 121.04 28.8C120.608 29.424 120.188 30.084 119.78 30.78C119.564 31.188 119.384 31.608 119.24 32.04C119.072 32.496 118.976 32.952 118.952 33.408Z" fill="#151515"/>
<g clip-path="url(#clip0_56_58)">
<path d="M195.453 12.0802C197.285 11.1115 199.356 10.6294 201.668 10.6294C203.979 10.6294 205.847 11.039 207.544 11.8584C209.239 12.6777 210.576 13.8546 211.553 15.3868C212.529 16.919 213.061 18.7138 213.152 20.7689H206.803C206.773 19.042 206.292 17.7248 205.361 16.8149C204.43 15.9051 203.201 15.4524 201.67 15.4524C199.929 15.4524 198.569 16.0861 197.595 17.3513C196.619 18.6165 196.131 20.366 196.131 22.5998C196.131 25.1008 196.619 27.0064 197.595 28.3169C198.572 29.6273 199.929 30.2814 201.67 30.2814C203.292 30.2814 204.537 29.8129 205.407 28.8736C206.278 27.9344 206.744 26.5877 206.803 24.8314H213.152C213.093 27.0359 212.545 28.9031 211.509 30.4376C210.474 31.9721 209.093 33.1331 207.366 33.923C205.639 34.7129 203.741 35.1067 201.67 35.1067C199.388 35.1067 197.34 34.6518 195.524 33.7442C193.708 32.8366 192.266 31.4515 191.201 29.5888C190.135 27.7284 189.601 25.4267 189.601 22.6881C189.601 20.2166 190.119 18.071 191.155 16.2559C192.191 14.4407 193.623 13.0466 195.455 12.0802H195.453Z" fill="#151515"/>
<path d="M223.821 14.6937C224.512 13.3833 225.509 12.4305 226.814 11.8352C228.119 11.24 229.915 10.9412 232.196 10.9412V16.3007C229.675 16.45 227.708 16.785 226.296 17.3055C224.886 17.8261 223.835 18.6748 223.143 19.8517C222.452 21.0286 222.062 22.7035 221.973 24.8762V34.391H215.578V11.3441H221.793L221.973 20.189H222.242C222.603 17.8374 223.127 16.0042 223.819 14.6937H223.821Z" fill="#151515"/>
<path d="M238.591 24.1638C238.621 26.0694 239.221 27.5745 240.394 28.6745C241.566 29.7744 243.065 30.3267 244.897 30.3267C246.339 30.3267 247.562 29.9623 248.568 29.2312C249.574 28.5025 250.227 27.5564 250.528 26.3954H256.11C255.871 28.2716 255.179 29.865 254.039 31.1754C252.898 32.4858 251.518 33.4681 249.896 34.1244C248.274 34.7785 246.608 35.1067 244.897 35.1067C241.055 35.1067 238.023 34.0339 235.801 31.8906C233.579 29.7473 232.468 26.7077 232.468 22.7786C232.468 20.366 232.963 18.2363 233.953 16.3917C234.944 14.5471 236.34 13.1235 238.142 12.1254C239.944 11.1273 242.059 10.6294 244.491 10.6294C246.923 10.6294 248.995 11.1499 250.795 12.1933C252.595 13.2367 253.968 14.6422 254.915 16.4143C255.859 18.1865 256.334 20.16 256.334 22.3328V24.1638H238.591ZM238.591 20.7236H250.028C249.907 19.0556 249.33 17.7519 248.294 16.8149C247.258 15.8757 245.944 15.4072 244.354 15.4072C242.764 15.4072 241.398 15.8689 240.346 16.7923C239.294 17.7157 238.71 19.0261 238.589 20.7236H238.591Z" fill="#151515"/>
<path d="M267.587 22.0624C270.468 22.0918 272.48 21.8541 273.621 21.3472C274.762 20.8402 275.332 20.0073 275.332 18.8462C275.332 17.9228 274.942 17.1194 274.162 16.4336C273.381 15.7478 272.15 15.4061 270.47 15.4061C268.791 15.4061 267.379 15.8678 266.419 16.7912C265.458 17.7146 264.902 18.9504 264.753 20.4984H258.404C258.493 18.681 258.997 17.0288 259.912 15.5396C260.827 14.0504 262.171 12.8599 263.943 11.9659C265.714 11.0719 267.877 10.626 270.427 10.626C274.18 10.626 276.986 11.468 278.848 13.1496C280.709 14.8312 281.64 16.9994 281.64 19.6497V34.3904H275.517L275.337 27.1977H275.111C274.81 29.7281 273.849 31.679 272.229 33.0506C270.61 34.4221 268.552 35.1056 266.061 35.1056C263.72 35.1056 261.819 34.5624 260.364 33.4761C258.908 32.3897 258.181 30.8031 258.181 28.7187C258.181 26.6342 258.961 24.9956 260.521 23.8051C262.082 22.6146 264.438 22.0329 267.591 22.0624H267.587ZM268.262 30.9525C269.524 30.9525 270.694 30.6538 271.775 30.0585C272.857 29.4633 273.719 28.6734 274.365 27.6911C275.01 26.7089 275.332 25.6655 275.332 24.5633V21.0348H275.106C274.956 22.0171 274.648 22.807 274.182 23.4022C273.717 23.9975 272.982 24.4592 271.976 24.7873C270.97 25.1155 269.567 25.3373 267.767 25.4573C266.807 25.5161 266.049 25.7854 265.492 26.2607C264.938 26.7383 264.66 27.3765 264.66 28.1823C264.66 29.0468 264.968 29.7235 265.584 30.2147C266.2 30.7058 267.092 30.9525 268.262 30.9525Z" fill="#151515"/>
<path d="M293.297 15.2724V26.8876C293.297 28.0192 293.523 28.7706 293.972 29.144C294.422 29.5175 295.323 29.7031 296.674 29.7031C297.664 29.7031 298.715 29.6578 299.826 29.5695V34.4378C297.395 34.6166 295.759 34.6913 294.919 34.6619C292.097 34.6619 290.055 34.1776 288.796 33.2111C287.537 32.2447 286.905 30.493 286.905 27.9626V15.2724H283.257V11.3411H286.905V5.31177H292.985L293.165 11.3434H299.874V15.2747H293.299L293.297 15.2724Z" fill="#151515"/>
<path d="M302.573 4.59677C302.573 3.58509 302.94 2.71373 303.677 1.98269C304.412 1.25392 305.29 0.887268 306.312 0.887268C307.334 0.887268 308.256 1.24487 308.99 1.96006C309.725 2.67525 310.094 3.5534 310.094 4.59677C310.094 5.64014 309.727 6.47303 308.99 7.18822C308.256 7.90342 307.361 8.26101 306.312 8.26101C305.262 8.26101 304.414 7.90342 303.677 7.18822C302.942 6.47303 302.573 5.61072 302.573 4.59677ZM303.159 11.3413H309.554V34.3905H303.159V11.3436V11.3413Z" fill="#151515"/>
<path d="M318.693 24.1638C318.723 26.0694 319.323 27.5745 320.493 28.6745C321.663 29.7744 323.165 30.3267 324.997 30.3267C326.438 30.3267 327.661 29.9623 328.667 29.2312C329.673 28.5025 330.326 27.5564 330.627 26.3954H336.21C335.97 28.2716 335.279 29.865 334.138 31.1754C332.997 32.4858 331.617 33.4681 329.995 34.1244C328.373 34.7785 326.708 35.1067 324.997 35.1067C321.155 35.1067 318.123 34.0339 315.901 31.8906C313.679 29.7473 312.568 26.7077 312.568 22.7786C312.568 20.366 313.063 18.2363 314.053 16.3917C315.043 14.5449 316.439 13.1235 318.241 12.1254C320.041 11.1273 322.159 10.6294 324.59 10.6294C327.022 10.6294 329.094 11.1499 330.894 12.1933C332.696 13.2367 334.07 14.6422 335.014 16.4143C335.961 18.1865 336.433 20.16 336.433 22.3328V24.1638H318.693ZM318.693 20.7236H330.13C330.009 19.0556 329.432 17.7519 328.396 16.8149C327.36 15.8757 326.046 15.4072 324.456 15.4072C322.866 15.4072 321.499 15.8689 320.448 16.7923C319.396 17.7157 318.812 19.0261 318.691 20.7236H318.693Z" fill="#151515"/>
<path d="M347.285 10.4501V11.3441H354.264V15.2754H347.42V34.3955H341.025V15.2731H336.748V11.3418H341.025V10.4478C341.025 7.70698 341.737 5.6904 343.165 4.39581C344.593 3.10122 346.836 2.45166 349.898 2.45166C351.068 2.45166 352.524 2.48108 354.266 2.53993V7.59155C352.644 7.53271 351.549 7.50102 350.979 7.50102C349.537 7.50102 348.563 7.70924 348.052 8.12569C347.541 8.54213 347.285 9.31617 347.285 10.4478V10.4501Z" fill="#151515"/>
<path d="M164.403 7.90344C160.365 8.77707 157.168 10.9543 154.819 14.4443C152.546 17.8143 151.793 21.5216 152.555 25.5638C164.163 22.8162 166.296 19.6249 164.403 7.90344Z" fill="#FF6600"/>
<path d="M182.371 19.688C181.596 15.6051 179.481 12.4184 176.029 10.1302C172.475 7.77414 168.649 7.02047 164.549 7.8692C167.323 19.4458 170.529 21.5711 182.371 19.688Z" fill="#FF6600"/>
<path d="M152.584 25.7163C152.586 25.7344 152.588 25.7503 152.593 25.7684C153.419 29.8898 155.559 33.0946 159.013 35.3873C162.464 37.6777 166.24 38.3952 170.34 37.5464C167.57 25.9924 164.372 23.8536 152.584 25.7163Z" fill="#FF6600"/>
<path d="M170.485 37.5122C174.523 36.6408 177.683 34.5133 179.967 31.1229C182.316 27.633 183.124 23.8714 182.394 19.836C170.732 22.5881 168.587 25.768 170.485 37.5122Z" fill="#FF6600"/>
<path d="M302.582 4.59762C302.582 3.58594 302.949 2.71458 303.686 1.98354C304.421 1.25477 305.297 0.890381 306.319 0.890381C307.341 0.890381 308.263 1.24798 308.997 1.96317C309.732 2.67837 310.101 3.55652 310.101 4.59989C310.101 5.64326 309.734 6.47614 308.997 7.19134C308.263 7.90653 307.368 8.26413 306.319 8.26413C305.269 8.26413 304.421 7.90653 303.684 7.19134C302.949 6.47614 302.58 5.61383 302.58 4.59989L302.582 4.59762Z" fill="#FF6600"/>
</g>
<defs>
<clipPath id="clip0_56_58">
<rect width="202" height="37" fill="white" transform="translate(152.268 0.890503)"/>
</clipPath>
</defs>
</svg>
